<svg width="1531" height="1143" viewBox="0 0 1531 1143" fill="none" xmlns="http://www.w3.org/2000/svg">
<rect width="161.143" height="30.2027" rx="15.1013" transform="matrix(0.8014 -0.598128 -0.601983 -0.798509 1240.13 371.363)" fill="#F2F2F2"/>
<rect width="154.491" height="28.228" rx="14.114" transform="matrix(0.84714 0.53137 -0.535201 0.844725 194.427 300.688)" fill="#F2F2F2"/>
<rect width="35.1514" height="36.5319" rx="17.5757" transform="matrix(0.84714 0.53137 -0.535201 0.844725 517.784 76.3947)" fill="#F2F2F2"/>
<rect width="35.1514" height="36.5319" rx="17.5757" transform="matrix(0.84714 0.53137 -0.535201 0.844725 1025.29 51)" fill="#F2F2F2"/>
<rect width="35.1514" height="36.5319" rx="17.5757" transform="matrix(0.84714 0.53137 -0.535201 0.844725 1400.55 214)" fill="#F2F2F2"/>
<rect width="41.6237" height="36.5319" rx="18.2659" transform="matrix(-0.84714 -0.53137 -0.535201 0.844725 1464.81 540.117)" fill="#F2F2F2"/>
<rect width="41.6237" height="36.5319" rx="18.2659" transform="matrix(-0.84714 -0.53137 -0.535201 0.844725 1349.81 890.118)" fill="#F2F2F2"/>
<rect width="41.6237" height="36.5319" rx="18.2659" transform="matrix(-0.84714 -0.53137 -0.535201 0.844725 1068.81 1062.12)" fill="#F2F2F2"/>
<rect width="22.6977" height="19.9211" rx="9.96054" transform="matrix(-0.84714 -0.53137 -0.535201 0.844725 1088.7 1125.61)" fill="#F2F2F2"/>
<rect width="22.6977" height="19.9211" rx="9.96054" transform="matrix(-0.84714 -0.53137 -0.535201 0.844725 493.89 1062.06)" fill="#F2F2F2"/>
<rect width="22.6977" height="19.9211" rx="9.96054" transform="matrix(-0.84714 -0.53137 -0.535201 0.844725 119.89 880.061)" fill="#F2F2F2"/>
<rect width="22.6977" height="19.9211" rx="9.96054" transform="matrix(-0.84714 -0.53137 -0.535201 0.844725 29.8899 523.061)" fill="#F2F2F2"/>
<rect width="22.6977" height="19.9211" rx="9.96054" transform="matrix(-0.84714 -0.53137 -0.535201 0.844725 119.89 274.061)" fill="#F2F2F2"/>
<rect width="22.6977" height="19.9211" rx="9.96054" transform="matrix(-0.84714 -0.53137 -0.535201 0.844725 512.89 46.0609)" fill="#F2F2F2"/>
<rect width="22.6977" height="19.9211" rx="9.96054" transform="matrix(-0.84714 -0.53137 -0.535201 0.844725 1073.89 12.0609)" fill="#F2F2F2"/>
<rect width="22.6977" height="19.9211" rx="9.96054" transform="matrix(-0.84714 -0.53137 -0.535201 0.844725 1475.89 211.061)" fill="#F2F2F2"/>
<rect width="29.734" height="26.0966" rx="13.0483" transform="matrix(-0.84714 -0.53137 -0.535201 0.844725 1530.18 535.714)" fill="#F2F2F2"/>
<rect width="22.6977" height="19.9211" rx="9.96054" transform="matrix(-0.84714 -0.53137 -0.535201 0.844725 1387.89 921.061)" fill="#F2F2F2"/>
<rect width="28.1836" height="27.5587" rx="13.7793" transform="matrix(-0.84714 -0.53137 -0.535201 0.844725 532.625 1012.98)" fill="#F2F2F2"/>
<rect width="24.8089" height="24.2589" rx="12.1294" transform="matrix(-0.84714 -0.53137 -0.535201 0.844725 166 853.183)" fill="#F2F2F2"/>
<rect width="24.8089" height="24.2589" rx="12.1294" transform="matrix(-0.84714 -0.53137 -0.535201 0.844725 84 536.183)" fill="#F2F2F2"/>
<rect width="24.8089" height="24.2589" rx="12.1294" transform="matrix(-0.84714 -0.53137 -0.535201 0.844725 166 294.183)" fill="#F2F2F2"/>
<path d="M187.267 842.368C183.156 836.545 184.56 828.515 190.402 824.432L322.533 732.09C328.375 728.007 336.443 729.418 340.554 735.241V735.241C344.664 741.063 343.261 749.094 337.418 753.177L205.287 845.519C199.445 849.602 191.377 848.191 187.267 842.368V842.368Z" fill="#F2F2F2"/>
<path d="M1378.71 550.006C1379.97 557.118 1375.23 563.9 1368.12 565.154L1296.5 577.778C1289.39 579.032 1282.6 574.283 1281.33 567.172V567.172C1280.06 560.06 1284.8 553.278 1291.92 552.024L1363.53 539.4C1370.65 538.146 1377.44 542.895 1378.71 550.006V550.006Z" fill="#F2F2F2"/>
<path d="M200.027 589.604C198.614 593.311 194.459 595.18 190.748 593.78L111.72 563.96C108.009 562.559 106.145 558.419 107.558 554.712V554.712C108.971 551.005 113.125 549.135 116.837 550.536L195.864 580.356C199.576 581.756 201.439 585.897 200.027 589.604V589.604Z" fill="#F2F2F2"/>
<path d="M580.316 903.888C582.656 905.153 583.52 908.07 582.245 910.405L539.657 988.417C538.382 990.752 535.453 991.619 533.113 990.355V990.355C530.773 989.09 529.909 986.172 531.184 983.838L573.772 905.825C575.047 903.491 577.976 902.624 580.316 903.888V903.888Z" fill="#F2F2F2"/>
<path d="M972.455 901.156C975.386 899.924 978.769 901.297 980.011 904.223L1023.32 1006.24C1024.57 1009.17 1023.2 1012.54 1020.27 1013.77V1013.77C1017.34 1015 1013.95 1013.63 1012.71 1010.7L969.399 908.684C968.156 905.758 969.525 902.387 972.455 901.156V901.156Z" fill="#F2F2F2"/>
<path d="M546.695 145.065C552.037 142.742 558.267 145.182 560.61 150.515L591.732 221.365C594.074 226.698 591.643 232.905 586.301 235.228V235.228C580.959 237.551 574.73 235.111 572.387 229.778L541.265 158.928C538.922 153.595 541.353 147.388 546.695 145.065V145.065Z" fill="#F2F2F2"/>
<path d="M992.645 152.817C998.164 154.686 1001.11 160.671 999.223 166.184L974.186 239.37C972.3 244.883 966.297 247.837 960.778 245.968V245.968C955.259 244.099 952.314 238.114 954.2 232.601L979.237 159.415C981.123 153.902 987.126 150.948 992.645 152.817V152.817Z" fill="#F2F2F2"/>
<rect width="161.649" height="20.3382" rx="10.1691" transform="matrix(0.785708 0.618598 -0.622429 0.782676 1155.49 745.793)" fill="#F2F2F2"/>
<path d="M437.433 535.517C432.458 530.805 427.711 527.187 423.192 524.664C418.673 522.297 413.133 521.098 406.571 521.064C400.165 521.032 395.081 522.178 391.319 524.502C387.4 526.983 385.429 530.41 385.407 534.785C385.384 539.316 387.943 542.922 393.086 545.605C398.071 548.442 404.001 549.879 410.876 549.914C417.751 549.948 423.847 549.354 429.166 548.131C432.305 545.335 435.061 541.13 437.433 535.517ZM476.92 559.389C479.571 560.34 482.38 560.979 485.347 561.307C488.314 561.634 492.219 561.81 497.063 561.835C502.063 561.86 507.147 560.558 512.317 557.928C517.487 555.298 521.565 552.194 524.552 548.615C527.694 545.194 530.449 541.301 532.815 536.939C535.81 531.798 538.023 526.653 539.456 521.504L545.071 523.407C540.941 536.667 534.403 547.181 525.457 554.948C516.667 562.715 506.413 566.57 494.695 566.51C485.477 566.463 479.075 565.728 475.488 564.303C472.057 563.036 469.562 562.164 468.002 561.687C466.441 561.367 464.338 560.184 461.692 558.14C459.202 556.252 457.723 555.151 457.256 554.836C456.011 553.892 452.823 550.829 447.694 545.647C437.664 551.534 426.868 554.448 415.306 554.389C403.744 554.33 394.926 552.411 388.852 548.63C382.777 545.006 379.754 540.381 379.782 534.756C379.81 529.288 382.099 524.846 386.647 521.432C391.039 518.173 397.688 516.566 406.593 516.611C418.78 516.673 429.694 521.26 439.335 530.371C441.239 524.599 442.834 518.201 444.12 511.177L460.287 420.558C464.157 397.14 472.363 381.401 484.904 373.34C495.877 366.364 508.316 362.912 522.222 362.983C536.127 363.053 547.434 367.095 556.143 375.107C565.008 383.121 569.397 395.721 569.309 412.908L563.684 412.879C563.755 398.974 560.45 388.41 553.768 381.189C547.244 373.812 538.904 370.098 528.748 370.047C510.155 369.952 499.081 381.459 495.525 404.565C495.512 407.065 493.415 419.945 489.233 443.204C485.209 466.308 481.595 485.43 478.393 500.57C475.018 518.833 466.196 532.929 451.927 542.856C460.321 551.336 466.545 556.211 470.601 557.482C472.161 557.959 474.267 558.594 476.92 559.389ZM607.557 513.178C602.841 518.779 596.968 521.561 589.937 521.525C582.906 521.49 577.369 519.665 573.325 516.051C569.437 512.437 567.508 507.74 567.538 501.959C567.548 499.928 568.842 491.419 571.418 476.433L579.367 434.521L569.524 434.471L570.014 430.255L580.092 430.306C591.654 430.364 600.172 429.939 605.645 429.029L608.93 428.343L592.305 516.85C596.994 516.405 600.912 514.238 604.056 510.347L607.557 513.178ZM587.483 405.734C584.219 402.437 582.599 398.444 582.623 393.757C582.647 389.07 584.308 385.094 587.606 381.829C590.904 378.409 594.897 376.71 599.585 376.734C604.272 376.758 608.247 378.497 611.511 381.951C614.931 385.249 616.63 389.242 616.606 393.929C616.582 398.617 614.843 402.592 611.388 405.856C608.091 409.12 604.098 410.74 599.411 410.717C594.723 410.693 590.748 409.032 587.483 405.734ZM676.781 367.985C682.406 368.014 687.004 370.146 690.576 374.383C694.304 378.621 696.147 384.958 696.104 393.395C696.06 401.832 692.637 414.314 685.834 430.842L694.74 430.887L694.249 435.103L683.937 435.051C678.557 448.305 675.849 458.369 675.814 465.244L671.596 465.222C671.637 457.098 674.267 447.033 679.484 435.029L665.891 434.96C661.078 459.466 654.89 493.184 647.327 536.113L618.969 535.969L637.533 434.816L623.237 434.743L623.728 430.527L638.258 430.601L642.111 410.465C644.69 395.009 648.574 384.092 653.763 377.712C659.109 371.177 666.782 367.934 676.781 367.985ZM691.653 392.904C691.682 387.279 690.379 382.429 687.743 378.353C685.264 374.278 682.15 372.231 678.4 372.212C676.806 378.297 672.878 397.808 666.616 430.745L681.147 430.818C688.101 415.229 691.604 402.591 691.653 392.904ZM743.196 429.024C763.039 429.124 772.92 437.065 772.839 452.845C772.789 462.689 768.063 470.164 758.662 475.273C749.418 480.226 736.202 482.737 719.015 482.806C718.674 488.429 718.494 492.881 718.478 496.162C718.442 503.193 719.977 508.435 723.085 511.889C726.349 515.186 730.403 516.847 735.246 516.872C740.09 516.897 744.469 515.981 748.385 514.126C752.457 512.272 755.671 510.101 758.027 507.613C760.385 504.968 762.43 502.245 764.163 499.441C767.314 494.301 768.893 491.028 768.901 489.621L773.11 491.518C772.628 494.015 771.205 497.367 768.839 501.574C766.475 505.624 763.88 508.97 761.054 511.612C758.228 514.254 754.075 516.733 748.594 519.049C743.114 521.209 737.015 522.271 730.297 522.237C717.641 522.173 708.048 519.156 701.516 513.185C695.141 507.059 691.981 498.762 692.034 488.294C692.129 469.701 696.813 455.194 706.085 444.773C715.358 434.195 727.728 428.945 743.196 429.024ZM766.98 452.816C767.006 447.66 765.465 443.433 762.357 440.136C759.406 436.684 754.884 434.942 748.791 434.911C742.854 434.881 736.976 438.445 731.158 445.603C725.497 452.761 721.692 463.367 719.746 477.419C751.151 477.422 766.896 469.221 766.98 452.816ZM878.54 514.552C873.824 520.153 867.951 522.935 860.92 522.9C853.889 522.864 848.352 521.039 844.308 517.425C840.42 513.812 838.491 509.115 838.521 503.334C838.531 501.302 839.825 492.794 842.401 477.807L850.35 435.895L840.507 435.845L840.997 431.629L851.075 431.68C862.637 431.739 871.154 431.313 876.628 430.403L879.912 429.717L863.287 518.224C867.977 517.779 871.894 515.612 875.039 511.722L878.54 514.552ZM858.466 407.109C855.202 403.811 853.582 399.819 853.606 395.131C853.63 390.444 855.291 386.468 858.589 383.204C861.887 379.783 865.88 378.085 870.568 378.108C875.255 378.132 879.23 379.871 882.494 383.325C885.914 386.623 887.613 390.616 887.589 395.304C887.565 399.991 885.825 403.966 882.371 407.23C879.073 410.494 875.081 412.115 870.394 412.091C865.706 412.067 861.731 410.407 858.466 407.109ZM982.623 518.83C986.372 518.849 990.29 516.681 994.374 512.327L997.875 515.157C996.77 517.339 994.339 519.28 990.58 520.979C986.821 522.679 982.677 523.517 978.146 523.494C963.928 523.422 956.851 516.98 956.917 504.168C956.945 498.7 958.401 488.942 961.286 474.894C964.17 460.847 965.623 451.636 965.646 447.261C965.68 440.542 962.494 437.167 956.089 437.134C950.933 437.108 945.916 440.442 941.038 447.136C936.316 453.831 932.363 463.029 929.178 474.731L920.985 518.517C925.831 518.073 929.826 515.906 932.971 512.016L936.472 514.846C931.756 520.447 925.883 523.229 918.852 523.194C911.821 523.158 906.283 521.333 902.239 517.719C898.352 514.106 896.423 509.408 896.452 503.627C896.464 501.44 897.758 492.853 900.334 477.866L908.29 434.548C903.601 434.993 899.683 437.161 896.539 441.051L893.038 438.221C897.754 432.62 903.627 429.837 910.658 429.873C917.845 429.909 923.383 431.734 927.27 435.348C931.158 438.961 933.085 444.049 933.051 450.611L933.044 452.017C939.525 437.363 949.562 430.07 963.155 430.139C972.374 430.186 979.547 432.879 984.676 438.217C989.806 443.399 992.347 450.599 992.3 459.818C992.275 464.661 990.742 474.028 987.703 487.919C984.664 501.653 982.97 511.957 982.623 518.83ZM1141.48 524.323C1127.73 524.253 1120.26 518.2 1119.07 506.163C1112.13 518.158 1103.43 524.13 1092.96 524.077C1082.5 524.024 1074.15 520.856 1067.93 514.575C1061.87 508.138 1058.87 499.217 1058.93 487.811C1059.02 470 1063.47 456.038 1072.27 445.927C1081.07 435.815 1092.43 430.795 1106.33 430.865C1117.74 430.923 1125.29 436.352 1128.98 447.152C1129.79 442.468 1130.67 437.786 1131.63 433.103C1143.19 433.162 1151.79 432.736 1157.42 431.828L1160.47 431.14L1143.84 519.647C1148.53 519.202 1152.45 517.035 1155.6 513.145L1159.1 515.975C1154.38 521.576 1148.51 524.358 1141.48 524.323ZM1085.35 499.898C1085.32 506.929 1086.15 511.855 1087.86 514.676C1089.72 517.342 1092.52 518.684 1096.27 518.703C1100.02 518.722 1103.86 516.71 1107.79 512.668C1112.97 507.382 1117.15 500.684 1120.31 492.575C1120.79 490.547 1121.68 485.708 1122.96 478.058C1124.41 470.253 1125.62 463.853 1126.58 458.858C1126.14 452.918 1124.53 447.754 1121.74 443.365C1118.95 438.976 1115.44 436.771 1111.22 436.749C1103.57 436.711 1097.36 443.554 1092.6 457.28C1087.85 470.849 1085.43 485.055 1085.35 499.898ZM557.007 791.128C549.82 791.091 544.126 789.422 539.924 786.119L532.7 823.816L504.811 823.675L527.47 700.98C522.78 701.425 518.863 703.592 515.718 707.483L512.217 704.652C516.933 699.051 522.729 696.268 529.603 696.303C536.634 696.339 542.094 698.085 545.982 701.542C549.872 704.843 551.957 709.541 552.238 715.636C559.173 703.953 567.952 698.138 578.577 698.192C589.201 698.246 597.31 701.334 602.904 707.456C608.498 713.422 611.268 721.639 611.215 732.107C611.12 750.544 606.046 765.049 595.992 775.623C585.939 786.04 572.944 791.208 557.007 791.128ZM541.613 776.753C544.238 782.704 549.223 785.698 556.566 785.735C564.066 785.773 570.582 779.556 576.115 767.084C581.803 754.614 584.692 739.707 584.781 722.364C584.818 715.177 584.062 710.251 582.513 707.587C581.12 704.924 578.471 703.582 574.565 703.562C570.659 703.543 566.585 705.866 562.342 710.531C558.256 715.198 555.264 719.636 553.368 723.845C551.472 727.898 550.523 730.237 550.519 730.862L550.285 730.86L541.613 776.753ZM665.681 783.476C660.965 789.077 655.091 791.859 648.06 791.824C641.029 791.788 635.492 789.963 631.448 786.349C627.56 782.736 625.631 778.038 625.661 772.257C625.671 770.226 626.965 761.717 629.542 746.731L637.491 704.819L627.647 704.769L628.138 700.553L638.215 700.604C649.777 700.663 658.295 700.237 663.768 699.327L667.053 698.641L650.428 787.148C655.117 786.703 659.035 784.536 662.18 780.646L665.681 783.476ZM645.607 676.033C642.342 672.735 640.722 668.742 640.746 664.055C640.77 659.368 642.431 655.392 645.729 652.128C649.028 648.707 653.021 647.008 657.708 647.032C662.395 647.056 666.371 648.795 669.634 652.249C673.055 655.547 674.753 659.54 674.729 664.228C674.705 668.915 672.966 672.89 669.512 676.154C666.214 679.418 662.221 681.039 657.534 681.015C652.847 680.991 648.871 679.33 645.607 676.033ZM769.763 787.754C773.513 787.773 777.43 785.605 781.515 781.251L785.016 784.081C783.911 786.263 781.479 788.204 777.72 789.903C773.962 791.603 769.817 792.441 765.286 792.418C751.068 792.346 743.992 785.904 744.057 773.092C744.085 767.624 745.541 757.866 748.426 743.818C751.31 729.771 752.764 720.56 752.786 716.185C752.821 709.466 749.635 706.091 743.229 706.058C738.073 706.032 733.056 709.366 728.178 716.06C723.456 722.755 719.503 731.953 716.318 743.655L708.125 787.441C712.971 786.997 716.967 784.83 720.111 780.939L723.612 783.77C718.896 789.371 713.023 792.153 705.992 792.118C698.961 792.082 693.424 790.257 689.38 786.643C685.492 783.029 683.563 778.332 683.593 772.551C683.604 770.364 684.898 761.777 687.475 746.79L695.431 703.472C690.741 703.917 686.824 706.085 683.679 709.975L680.178 707.145C684.894 701.544 690.767 698.761 697.798 698.797C704.985 698.833 710.523 700.658 714.411 704.272C718.298 707.885 720.225 712.973 720.192 719.535L720.184 720.941C726.666 706.287 736.703 698.994 750.296 699.063C759.514 699.11 766.688 701.802 771.816 707.141C776.946 712.323 779.487 719.523 779.44 728.742C779.415 733.585 777.883 742.952 774.843 756.843C771.804 770.577 770.111 780.881 769.763 787.754ZM852.736 741.769C849.472 738.471 847.852 734.479 847.876 729.792C847.9 725.104 849.561 721.129 852.859 717.864C856.158 714.443 860.151 712.745 864.838 712.769C866.244 712.776 868.039 713.097 870.223 713.734C867.283 708.25 861.75 705.488 853.626 705.446C845.501 705.405 838.287 710.525 831.985 720.805C825.682 731.085 822.479 746.381 822.375 766.693C822.339 773.724 823.875 778.966 826.982 782.419C830.246 785.717 834.3 787.378 839.144 787.402C843.987 787.427 848.367 786.512 852.282 784.657C856.354 782.802 859.568 780.631 861.925 778.143C864.282 775.499 866.327 772.775 868.06 769.971C871.212 764.831 872.791 761.558 872.798 760.152L877.007 762.048C876.525 764.546 875.102 767.898 872.737 772.104C870.372 776.155 867.777 779.501 864.951 782.143C862.125 784.785 857.972 787.263 852.491 789.579C847.012 791.739 840.913 792.802 834.194 792.768C821.539 792.704 811.945 789.686 805.413 783.716C799.038 777.59 795.878 769.293 795.932 758.824C796.027 740.232 800.71 725.724 809.982 715.303C819.411 704.726 832.094 699.478 848.031 699.559C858.812 699.613 867.078 702.39 872.831 707.888C878.584 713.385 881.438 720.587 881.392 729.493C881.364 735.118 879.623 739.406 876.17 742.357C872.874 745.309 868.96 746.773 864.429 746.75C859.898 746.727 856.001 745.067 852.736 741.769ZM978.885 788.814C982.635 788.833 986.552 786.666 990.637 782.311L994.138 785.142C993.033 787.323 990.601 789.264 986.842 790.964C983.084 792.664 978.939 793.502 974.408 793.479C960.19 793.407 953.114 786.965 953.179 774.153C953.207 768.684 954.663 758.926 957.548 744.879C960.432 730.831 961.886 721.62 961.908 717.245C961.942 710.527 958.757 707.151 952.351 707.119C947.039 707.092 941.864 710.659 936.828 717.821C931.947 724.984 927.913 734.729 924.725 747.056L916.765 791.077L888.642 790.935L915.41 643.886C910.72 644.331 906.803 646.499 903.658 650.389L900.157 647.559C904.873 641.958 910.747 639.175 917.778 639.211C924.965 639.247 930.502 641.072 934.39 644.686C938.277 648.299 940.204 653.387 940.171 659.949C940.164 661.199 939.998 663.229 939.671 666.04L929.543 721.534C936.023 707.192 945.981 700.056 959.418 700.124C968.636 700.17 975.81 702.863 980.938 708.201C986.068 713.384 988.609 720.584 988.562 729.802C988.537 734.646 987.005 744.013 983.965 757.903C980.926 771.637 979.232 781.941 978.885 788.814Z" fill="white"/>
</svg>
